<svg version="1.1" id="Layer_1" xmlns="http://www.w3.org/2000/svg" xmlns:xlink="http://www.w3.org/1999/xlink" x="0px" y="0px"
	 width="100%" viewBox="0 0 512 512" enable-background="new 0 0 512 512" xml:space="preserve">
<path fill="#000000" opacity="1.000000" stroke="none" 
	d="
M1.000000,193.000000 
	C1.000000,128.666672 1.000000,64.833336 1.000000,1.000000 
	C171.666672,1.000000 342.333344,1.000000 513.000000,1.000000 
	C513.000000,171.666672 513.000000,342.333344 513.000000,513.000000 
	C342.333344,513.000000 171.666672,513.000000 1.000000,513.000000 
	C1.000000,406.500000 1.000000,300.000000 1.000000,193.000000 
M234.122818,17.019859 
	C223.926819,17.346014 213.661163,17.037865 203.551208,18.147736 
	C188.573822,19.791956 174.688797,25.181568 160.860947,32.973164 
	C134.706009,32.982204 108.551064,32.981266 82.396172,33.022049 
	C80.591972,33.024860 78.756607,33.180435 76.989365,33.533432 
	C63.897194,36.148491 53.025631,42.673237 44.635773,52.964451 
	C37.982922,61.125000 33.778141,70.611862 33.090183,81.189453 
	C32.358875,92.433601 31.852766,103.734314 32.106453,114.990982 
	C32.506889,132.759247 27.519991,149.393112 23.017000,166.250122 
	C20.320433,176.344757 17.319622,186.787201 17.260651,197.089386 
	C16.793407,278.716980 16.999268,360.348450 17.009666,441.978729 
	C17.009855,443.469788 16.939117,445.007355 17.256855,446.444672 
	C20.440113,460.844788 26.979593,473.419281 38.482288,482.872192 
	C48.737965,491.300385 60.315456,496.954895 73.985764,496.988373 
	C92.643997,497.034058 111.302452,497.009460 129.960754,496.982635 
	C131.607590,496.980255 133.289780,496.912415 134.895172,496.581848 
	C148.898087,493.698303 160.873001,487.130310 170.192093,476.234650 
	C179.078873,465.844421 184.932861,454.022278 184.974091,440.010681 
	C185.075058,405.693359 185.044983,371.375671 185.988770,337.006439 
	C192.998810,336.355225 200.008865,335.704010 207.798782,334.951294 
	C213.192535,332.320251 218.586273,329.689240 224.208847,327.722443 
	C229.232513,330.149780 234.043091,333.836060 239.326263,334.730286 
	C248.952911,336.359619 258.906952,337.225891 268.634888,336.712891 
	C276.336578,336.306763 283.961487,333.495972 290.770691,327.919708 
	C292.971313,329.185730 295.170319,330.454529 297.372803,331.717316 
	C307.238586,337.373932 318.081116,337.276672 328.988373,338.000397 
	C328.992279,371.832367 328.968628,405.664429 329.044189,439.496246 
	C329.051483,442.763489 329.363159,446.097534 330.060699,449.285187 
	C335.990967,476.384613 361.676392,498.059509 389.765228,497.108551 
	C407.078156,496.522430 424.427124,497.009552 441.759857,496.983704 
	C443.409943,496.981232 445.093811,496.928162 446.704285,496.608063 
	C461.252136,493.716736 473.556519,486.741028 483.015320,475.354492 
	C491.359589,465.309570 496.944366,453.819000 496.958588,440.436707 
	C497.042389,361.439301 496.987579,282.441803 497.011810,203.444336 
	C497.015961,189.845932 493.976624,176.820114 490.498505,163.766449 
	C487.181885,151.319077 483.696686,138.744659 482.293365,126.004929 
	C480.699554,111.535347 481.350525,96.819901 480.978729,82.212532 
	C480.933044,80.417221 480.726593,78.603874 480.377319,76.841972 
	C477.819824,63.940258 471.408691,53.249332 461.321655,44.898426 
	C453.205292,38.178986 443.754974,33.390072 433.264160,33.184746 
	C406.276978,32.656548 379.271881,33.045063 351.851349,32.433563 
	C351.263306,32.161148 350.657318,31.921532 350.089813,31.611509 
	C336.094452,23.965828 321.217499,17.997824 305.368958,17.305708 
	C281.972107,16.283955 258.492767,17.151112 234.122818,17.019859 
z"/>
<path fill="#935E50" opacity="1.000000" stroke="none" 
	d="
M185.067642,337.058136 
	C185.044983,371.375671 185.075058,405.693359 184.974091,440.010681 
	C184.932861,454.022278 179.078873,465.844421 170.192093,476.234650 
	C160.873001,487.130310 148.898087,493.698303 134.895172,496.581848 
	C133.289780,496.912415 131.607590,496.980255 129.960754,496.982635 
	C111.302452,497.009460 92.643997,497.034058 73.985764,496.988373 
	C60.315456,496.954895 48.737965,491.300385 38.482288,482.872192 
	C26.979593,473.419281 20.440113,460.844788 17.256855,446.444672 
	C16.939117,445.007355 17.009855,443.469788 17.009666,441.978729 
	C16.999268,360.348450 16.793407,278.716980 17.260651,197.089386 
	C17.319622,186.787201 20.320433,176.344757 23.017000,166.250122 
	C27.519991,149.393112 32.506889,132.759247 32.106453,114.990982 
	C31.852766,103.734314 32.358875,92.433601 33.090183,81.189453 
	C33.778141,70.611862 37.982922,61.125000 44.635773,52.964451 
	C53.025631,42.673237 63.897194,36.148491 76.989365,33.533432 
	C78.756607,33.180435 80.591972,33.024860 82.396172,33.022049 
	C108.551064,32.981266 134.706009,32.982204 161.213409,33.279968 
	C143.099442,45.089165 128.657227,60.388790 118.102890,79.711586 
	C110.448730,93.738838 105.761803,108.565376 105.164536,124.166962 
	C104.426445,143.446899 105.072479,162.779816 105.127052,182.506409 
	C106.195686,197.471558 110.692924,210.883759 118.361725,223.276886 
	C122.036194,229.214996 126.250183,234.947281 128.989777,241.302979 
	C132.301453,248.985825 135.984268,257.123566 136.503448,265.256165 
	C137.355820,278.608276 140.434738,291.095062 144.952530,303.502197 
	C151.011536,320.141998 162.774780,330.310699 179.480820,335.242004 
	C181.358200,335.796173 183.206085,336.450317 185.067642,337.058136 
z"/>
<path fill="#AF715D" opacity="1.000000" stroke="none" 
	d="
M352.273926,33.067245 
	C379.271881,33.045063 406.276978,32.656548 433.264160,33.184746 
	C443.754974,33.390072 453.205292,38.178986 461.321655,44.898426 
	C471.408691,53.249332 477.819824,63.940258 480.377319,76.841972 
	C480.726593,78.603874 480.933044,80.417221 480.978729,82.212532 
	C481.350525,96.819901 480.699554,111.535347 482.293365,126.004929 
	C483.696686,138.744659 487.181885,151.319077 490.498505,163.766449 
	C493.976624,176.820114 497.015961,189.845932 497.011810,203.444336 
	C496.987579,282.441803 497.042389,361.439301 496.958588,440.436707 
	C496.944366,453.819000 491.359589,465.309570 483.015320,475.354492 
	C473.556519,486.741028 461.252136,493.716736 446.704285,496.608063 
	C445.093811,496.928162 443.409943,496.981232 441.759857,496.983704 
	C424.427124,497.009552 407.078156,496.522430 389.765228,497.108551 
	C361.676392,498.059509 335.990967,476.384613 330.060699,449.285187 
	C329.363159,446.097534 329.051483,442.763489 329.044189,439.496246 
	C328.968628,405.664429 328.992279,371.832367 329.278046,337.313049 
	C345.395966,333.451447 358.450745,325.630005 365.732544,311.100952 
	C372.180267,298.235962 377.023529,284.544098 377.052063,269.675903 
	C377.071198,259.708069 379.569946,250.296204 384.748047,241.683731 
	C388.685822,235.134232 392.633972,228.590973 396.556152,222.032150 
	C403.929443,209.702316 408.316223,196.444244 408.972046,181.555939 
	C409.005890,163.098938 409.209961,145.105408 408.938324,127.119080 
	C408.695557,111.045525 404.132355,95.949997 397.188141,81.554306 
	C396.517242,80.163383 395.022430,79.169861 393.944153,77.627625 
	C391.932343,73.699921 390.106323,69.986862 387.802002,66.599152 
	C378.433411,52.826004 365.982117,42.269196 352.273926,33.067245 
z"/>
<path fill="#F2F2F2" opacity="1.000000" stroke="none" 
	d="
M408.935242,182.022552 
	C408.316223,196.444244 403.929443,209.702316 396.556152,222.032150 
	C392.633972,228.590973 388.685822,235.134232 384.748047,241.683731 
	C379.569946,250.296204 377.071198,259.708069 377.052063,269.675903 
	C377.023529,284.544098 372.180267,298.235962 365.732544,311.100952 
	C358.450745,325.630005 345.395966,333.451447 329.254578,336.849548 
	C318.081116,337.276672 307.238586,337.373932 297.372803,331.717316 
	C295.170319,330.454529 292.971313,329.185730 290.383362,327.603516 
	C285.773834,322.398712 281.453491,317.590698 277.354889,312.600525 
	C272.522217,306.716522 268.530975,299.995300 260.985870,296.518860 
	C260.999176,285.589935 260.999176,275.129669 260.999176,264.695618 
	C272.749298,260.448639 281.190796,252.759460 286.614563,241.973999 
	C291.928009,231.407913 288.487946,223.522430 277.170807,219.845734 
	C265.674896,216.110977 253.886200,216.127625 242.160828,218.370300 
	C224.382248,221.770721 220.164856,232.609360 230.623962,247.489883 
	C236.279114,255.535645 243.681259,261.447601 253.027496,264.743347 
	C253.027496,275.712646 253.027496,286.351105 252.762695,297.210754 
	C249.806305,299.281403 246.636917,300.700226 244.510635,303.059204 
	C237.464600,310.876373 230.794403,319.032288 223.980042,327.058228 
	C218.586273,329.689240 213.192535,332.320251 207.229767,334.709106 
	C201.017761,330.712830 194.717957,327.655884 189.855011,323.073944 
	C175.289398,309.350037 170.907623,290.846649 169.327591,272.025543 
	C168.266190,259.382141 165.230469,248.018723 158.873505,237.170486 
	C152.924149,227.017792 147.630753,216.480682 142.440521,206.106476 
	C155.210175,209.572678 167.749023,209.934052 180.391830,207.972275 
	C213.717209,202.801147 241.471420,170.967743 240.851135,137.258774 
	C240.298615,107.232834 225.263702,85.735420 198.847656,72.025299 
	C186.678177,65.709259 173.481995,64.484230 160.171997,64.557159 
	C161.167084,63.039829 161.949341,61.762428 162.889603,60.614449 
	C179.968384,39.762466 201.490341,26.024893 227.844513,19.956593 
	C230.324875,19.385471 232.650894,18.144072 235.048569,17.213869 
	C258.492767,17.151112 281.972107,16.283955 305.368958,17.305708 
	C321.217499,17.997824 336.094452,23.965828 350.089813,31.611509 
	C350.657318,31.921532 351.263306,32.161148 352.062622,32.750404 
	C365.982117,42.269196 378.433411,52.826004 387.802002,66.599152 
	C390.106323,69.986862 391.932343,73.699921 393.587891,77.611771 
	C392.162689,77.457169 391.084961,77.026428 390.099457,76.440483 
	C373.273743,66.436340 355.141479,63.162949 335.845551,65.881714 
	C306.253387,70.051201 281.611816,92.926064 274.890472,122.450600 
	C268.600067,150.082321 281.129852,179.992493 305.913452,196.506210 
	C335.660461,216.327133 377.297302,212.430786 403.128876,187.421188 
	C405.027191,185.583282 406.998108,183.820358 408.935242,182.022552 
z"/>
<path fill="#D3D3D2" opacity="1.000000" stroke="none" 
	d="
M142.048676,206.112762 
	C147.630753,216.480682 152.924149,227.017792 158.873505,237.170486 
	C165.230469,248.018723 168.266190,259.382141 169.327591,272.025543 
	C170.907623,290.846649 175.289398,309.350037 189.855011,323.073944 
	C194.717957,327.655884 201.017761,330.712830 206.839813,334.759827 
	C200.008865,335.704010 192.998810,336.355225 185.528198,337.032288 
	C183.206085,336.450317 181.358200,335.796173 179.480820,335.242004 
	C162.774780,330.310699 151.011536,320.141998 144.952530,303.502197 
	C140.434738,291.095062 137.355820,278.608276 136.503448,265.256165 
	C135.984268,257.123566 132.301453,248.985825 128.989777,241.302979 
	C126.250183,234.947281 122.036194,229.214996 118.361725,223.276886 
	C110.692924,210.883759 106.195686,197.471558 105.416061,182.653046 
	C114.447563,191.217224 123.837059,199.125763 136.109222,203.457642 
	C138.262878,204.484360 140.155777,205.298569 142.048676,206.112762 
z"/>
<path fill="#D3D3D2" opacity="1.000000" stroke="none" 
	d="
M234.585693,17.116863 
	C232.650894,18.144072 230.324875,19.385471 227.844513,19.956593 
	C201.490341,26.024893 179.968384,39.762466 162.889603,60.614449 
	C161.949341,61.762428 161.167084,63.039829 159.874100,64.612961 
	C158.668060,65.140144 157.899200,65.311356 156.685333,65.529572 
	C148.417236,67.674812 140.450150,69.359612 132.821503,72.016235 
	C127.714958,73.794563 123.089073,76.953102 118.248100,79.494026 
	C128.657227,60.388790 143.099442,45.089165 161.667618,33.277428 
	C174.688797,25.181568 188.573822,19.791956 203.551208,18.147736 
	C213.661163,17.037865 223.926819,17.346014 234.585693,17.116863 
z"/>
<path fill="#CCC2BA" opacity="1.000000" stroke="none" 
	d="
M260.972565,296.987488 
	C268.530975,299.995300 272.522217,306.716522 277.354889,312.600525 
	C281.453491,317.590698 285.773834,322.398712 290.012329,327.633240 
	C283.961487,333.495972 276.336578,336.306763 268.634888,336.712891 
	C258.906952,337.225891 248.952911,336.359619 239.326263,334.730286 
	C234.043091,333.836060 229.232513,330.149780 224.094452,327.390320 
	C230.794403,319.032288 237.464600,310.876373 244.510635,303.059204 
	C246.636917,300.700226 249.806305,299.281403 253.199768,297.278015 
	C256.258606,297.078522 258.615601,297.032990 260.972565,296.987488 
z"/>
<path fill="#BC7B63" opacity="1.000000" stroke="none" 
	d="
M118.102890,79.711586 
	C123.089073,76.953102 127.714958,73.794563 132.821503,72.016235 
	C140.450150,69.359612 148.417236,67.674812 156.522644,65.891045 
	C152.539444,74.465782 148.175964,82.677299 144.034302,90.999222 
	C139.307465,100.497002 136.829269,110.481255 136.927933,121.231445 
	C137.156540,146.144287 137.032043,171.060760 136.949921,195.975433 
	C136.941940,198.399841 136.232361,200.821945 135.848450,203.245117 
	C123.837059,199.125763 114.447563,191.217224 105.409485,182.236481 
	C105.072479,162.779816 104.426445,143.446899 105.164536,124.166962 
	C105.761803,108.565376 110.448730,93.738838 118.102890,79.711586 
z"/>
<path fill="#D28D6C" opacity="1.000000" stroke="none" 
	d="
M408.972046,181.555939 
	C406.998108,183.820358 405.027191,185.583282 403.128876,187.421188 
	C377.297302,212.430786 335.660461,216.327133 305.913452,196.506210 
	C281.129852,179.992493 268.600067,150.082321 274.890472,122.450600 
	C281.611816,92.926064 306.253387,70.051201 335.845551,65.881714 
	C355.141479,63.162949 373.273743,66.436340 390.099457,76.440483 
	C391.084961,77.026428 392.162689,77.457169 393.553772,77.975998 
	C395.022430,79.169861 396.517242,80.163383 397.188141,81.554306 
	C404.132355,95.949997 408.695557,111.045525 408.938324,127.119080 
	C409.209961,145.105408 409.005890,163.098938 408.972046,181.555939 
M333.319824,113.199112 
	C324.610016,114.043503 316.791138,116.901512 310.693604,123.457100 
	C303.141418,131.576584 303.131561,142.282120 310.585938,150.436005 
	C323.406097,164.459198 350.379486,164.529877 363.294373,150.574112 
	C370.926575,142.326797 370.882629,131.387741 363.086426,123.220871 
	C356.780365,116.615013 348.767334,113.816933 339.044128,113.144913 
	C337.410522,113.142929 335.776917,113.140945 333.319824,113.199112 
z"/>
<path fill="#D28D6C" opacity="1.000000" stroke="none" 
	d="
M136.109222,203.457642 
	C136.232361,200.821945 136.941940,198.399841 136.949921,195.975433 
	C137.032043,171.060760 137.156540,146.144287 136.927933,121.231445 
	C136.829269,110.481255 139.307465,100.497002 144.034302,90.999222 
	C148.175964,82.677299 152.539444,74.465782 156.967651,65.844025 
	C157.899200,65.311356 158.668060,65.140144 159.734802,64.913132 
	C173.481995,64.484230 186.678177,65.709259 198.847656,72.025299 
	C225.263702,85.735420 240.298615,107.232834 240.851135,137.258774 
	C241.471420,170.967743 213.717209,202.801147 180.391830,207.972275 
	C167.749023,209.934052 155.210175,209.572678 142.440521,206.106476 
	C140.155777,205.298569 138.262878,204.484360 136.109222,203.457642 
M179.045670,113.144859 
	C177.410797,113.143021 175.775909,113.141182 173.317917,113.200058 
	C164.609268,114.046120 156.790787,116.903252 150.693863,123.458870 
	C143.142609,131.578217 143.132980,142.282547 150.587692,150.435684 
	C163.408310,164.457443 190.377335,164.528183 203.292496,150.573929 
	C210.924576,142.327820 210.880951,131.389297 203.086349,123.222763 
	C196.781052,116.616562 188.768021,113.820206 179.045670,113.144859 
z"/>
<path fill="#343434" opacity="1.000000" stroke="none" 
	d="
M260.985870,296.518860 
	C258.615601,297.032990 256.258606,297.078522 253.464569,297.056824 
	C253.027496,286.351105 253.027496,275.712646 253.027496,264.743347 
	C243.681259,261.447601 236.279114,255.535645 230.623962,247.489883 
	C220.164856,232.609360 224.382248,221.770721 242.160828,218.370300 
	C253.886200,216.127625 265.674896,216.110977 277.170807,219.845734 
	C288.487946,223.522430 291.928009,231.407913 286.614563,241.973999 
	C281.190796,252.759460 272.749298,260.448639 260.999176,264.695618 
	C260.999176,275.129669 260.999176,285.589935 260.985870,296.518860 
M241.472946,235.933044 
	C242.517700,237.510391 243.363800,239.321655 244.749084,240.498016 
	C245.088806,240.786499 247.715515,239.264816 248.311981,238.081818 
	C248.769241,237.174927 247.759033,234.382767 247.276001,234.351212 
	C245.465759,234.233017 243.604004,234.904144 241.472946,235.933044 
M265.324341,236.649796 
	C265.682251,240.035492 267.503326,241.557693 270.684692,240.099915 
	C271.679901,239.643921 272.505707,237.716934 272.480286,236.482361 
	C272.459869,235.489349 270.880829,233.616394 270.269165,233.722595 
	C268.593475,234.013535 267.063232,235.142319 265.324341,236.649796 
z"/>
<path fill="#674139" opacity="1.000000" stroke="none" 
	d="
M339.860535,113.138672 
	C348.767334,113.816933 356.780365,116.615013 363.086426,123.220871 
	C370.882629,131.387741 370.926575,142.326797 363.294373,150.574112 
	C350.379486,164.529877 323.406097,164.459198 310.585938,150.436005 
	C303.131561,142.282120 303.141418,131.576584 310.693604,123.457100 
	C316.791138,116.901512 324.610016,114.043503 333.493347,113.416985 
	C328.428131,117.716026 327.526245,122.682632 331.321045,126.553459 
	C334.538025,129.834885 339.666656,129.778229 342.799988,126.426620 
	C346.484253,122.485695 345.501556,117.601166 340.202026,113.495560 
	C340.073303,113.395828 339.973724,113.258476 339.860535,113.138672 
z"/>
<path fill="#C2BEBE" opacity="1.000000" stroke="none" 
	d="
M339.452332,113.141792 
	C339.973724,113.258476 340.073303,113.395828 340.202026,113.495560 
	C345.501556,117.601166 346.484253,122.485695 342.799988,126.426620 
	C339.666656,129.778229 334.538025,129.834885 331.321045,126.553459 
	C327.526245,122.682632 328.428131,117.716026 333.905090,113.386909 
	C335.776917,113.140945 337.410522,113.142929 339.452332,113.141792 
z"/>
<path fill="#674139" opacity="1.000000" stroke="none" 
	d="
M179.862732,113.139091 
	C188.768021,113.820206 196.781052,116.616562 203.086349,123.222763 
	C210.880951,131.389297 210.924576,142.327820 203.292496,150.573929 
	C190.377335,164.528183 163.408310,164.457443 150.587692,150.435684 
	C143.132980,142.282547 143.142609,131.578217 150.693863,123.458870 
	C156.790787,116.903252 164.609268,114.046120 173.491562,113.417747 
	C168.427734,117.717857 167.526779,122.683647 171.321381,126.553787 
	C174.538284,129.834732 179.666275,129.778122 182.799530,126.427063 
	C186.483704,122.486816 185.502136,117.603439 180.203949,113.496193 
	C180.075272,113.396431 179.975815,113.258972 179.862732,113.139091 
z"/>
<path fill="#C2BEBE" opacity="1.000000" stroke="none" 
	d="
M179.454193,113.141975 
	C179.975815,113.258972 180.075272,113.396431 180.203949,113.496193 
	C185.502136,117.603439 186.483704,122.486816 182.799530,126.427063 
	C179.666275,129.778122 174.538284,129.834732 171.321381,126.553787 
	C167.526779,122.683647 168.427734,117.717857 173.903122,113.387390 
	C175.775909,113.141182 177.410797,113.143021 179.454193,113.141975 
z"/>
<path fill="#292929" opacity="1.000000" stroke="none" 
	d="
M241.617249,235.606216 
	C243.604004,234.904144 245.465759,234.233017 247.276001,234.351212 
	C247.759033,234.382767 248.769241,237.174927 248.311981,238.081818 
	C247.715515,239.264816 245.088806,240.786499 244.749084,240.498016 
	C243.363800,239.321655 242.517700,237.510391 241.617249,235.606216 
z"/>
<path fill="#292929" opacity="1.000000" stroke="none" 
	d="
M265.399872,236.294586 
	C267.063232,235.142319 268.593475,234.013535 270.269165,233.722595 
	C270.880829,233.616394 272.459869,235.489349 272.480286,236.482361 
	C272.505707,237.716934 271.679901,239.643921 270.684692,240.099915 
	C267.503326,241.557693 265.682251,240.035492 265.399872,236.294586 
z"/>
</svg>